<?xml version="1.0" encoding="UTF-8" ?>
<!DOCTYPE svg PUBLIC "-//W3C//DTD SVG 1.1//EN" "http://www.w3.org/Graphics/SVG/1.1/DTD/svg11.dtd">
<svg width="1155pt" height="1155pt" viewBox="0 0 1155 1155" version="1.1" xmlns="http://www.w3.org/2000/svg">
<g id="#b5dae0ff">
<path fill="#b5dae0" opacity="1.00" d=" M 536.64 217.58 C 541.16 209.21 549.27 202.18 558.98 201.18 C 562.60 200.69 564.51 204.45 565.64 207.26 C 567.92 212.97 564.55 218.75 563.12 224.23 C 561.81 229.62 557.34 233.21 554.52 237.76 C 561.78 237.52 568.09 233.58 575.11 232.31 C 580.81 231.18 586.21 228.61 592.09 228.50 C 599.77 228.35 607.26 226.50 614.90 225.96 C 627.51 223.92 639.87 228.35 652.43 228.68 C 663.96 231.17 675.38 234.34 686.39 238.67 C 702.84 245.74 718.50 255.09 731.33 267.70 C 750.71 285.17 762.75 309.67 767.53 335.09 C 768.61 347.71 768.54 360.42 767.70 373.05 C 767.47 378.02 765.47 382.64 764.33 387.43 C 758.35 410.30 744.31 431.25 724.47 444.34 C 720.02 446.87 715.34 449.63 710.07 449.78 C 705.26 449.91 700.33 450.29 695.61 449.15 C 689.81 446.97 683.90 443.71 680.99 437.96 C 677.90 433.94 677.99 428.73 678.17 423.93 C 678.03 418.25 681.50 413.25 685.34 409.39 C 690.91 404.03 699.22 403.77 706.45 404.66 C 711.95 405.25 716.58 408.86 719.84 413.15 C 722.94 417.03 722.62 422.33 724.69 426.70 C 730.25 423.39 733.83 417.85 738.20 413.24 C 744.64 404.47 749.27 394.31 751.87 383.76 C 752.57 376.08 755.75 368.78 755.48 361.00 C 755.60 356.06 755.30 351.09 753.98 346.31 C 752.71 341.74 752.57 336.98 751.58 332.37 C 747.82 320.46 742.77 308.83 735.29 298.75 C 724.84 283.36 710.17 271.12 694.10 261.95 C 686.49 258.28 679.11 253.98 670.91 251.74 C 666.51 250.27 661.76 246.79 657.19 249.80 C 660.73 252.24 664.67 254.17 667.76 257.23 C 672.20 261.34 675.38 266.72 677.22 272.46 C 678.07 276.85 677.90 281.39 677.52 285.83 C 677.35 289.60 673.77 292.71 670.06 292.53 C 658.97 289.37 647.22 285.60 639.32 276.69 C 634.55 271.50 627.43 266.87 627.35 259.06 C 627.12 254.60 632.08 253.06 635.23 251.25 C 640.86 247.79 647.81 250.82 653.62 247.96 C 652.20 246.75 650.78 245.36 648.83 245.18 C 639.64 243.55 630.24 244.03 621.02 242.75 C 616.66 242.24 612.36 243.38 608.03 243.53 C 598.52 243.96 588.78 244.08 579.77 247.53 C 572.21 248.71 565.18 251.70 557.90 253.91 C 544.90 259.13 532.30 265.60 521.02 273.96 C 513.55 278.64 507.25 284.86 501.12 291.12 C 493.09 298.74 486.41 307.71 480.72 317.18 C 485.26 319.07 490.23 318.31 495.00 318.38 C 565.00 318.37 635.00 318.38 705.00 318.37 C 709.21 318.40 713.45 318.09 717.64 318.61 C 719.50 318.85 721.71 319.60 722.26 321.63 C 723.12 325.19 723.10 329.58 720.44 332.40 C 718.27 334.01 715.43 334.25 712.82 334.48 C 706.67 334.69 700.34 334.27 694.45 336.39 C 688.84 338.38 682.78 339.23 677.64 342.42 C 659.34 352.27 645.89 371.28 644.19 392.15 C 643.55 397.62 641.53 402.86 641.42 408.40 C 640.17 432.58 640.93 456.80 640.72 481.00 C 640.71 533.35 640.74 585.70 640.71 638.05 C 640.60 640.56 641.48 642.98 643.05 644.93 C 646.29 649.08 648.57 653.92 652.25 657.73 C 654.03 654.49 652.00 651.16 651.10 648.01 C 649.72 643.99 649.40 639.54 650.59 635.44 C 651.78 631.85 655.92 629.67 659.58 630.50 C 671.19 633.31 682.01 641.50 685.65 653.20 C 686.82 659.22 687.46 665.70 685.61 671.65 C 684.30 676.12 678.39 677.10 674.65 675.27 C 669.66 672.86 665.35 669.28 660.73 666.28 C 658.10 668.36 660.19 671.33 661.37 673.59 C 665.28 680.30 668.26 687.48 671.46 694.54 C 673.31 698.62 674.00 703.10 675.76 707.22 C 677.86 711.86 677.85 717.12 679.99 721.75 C 683.01 716.91 683.94 711.16 685.97 705.89 C 692.79 686.53 702.95 667.27 719.82 654.86 C 724.97 651.92 729.73 647.67 735.83 646.91 C 739.36 646.36 742.78 645.29 746.29 644.58 C 749.64 643.89 752.95 645.10 756.19 645.86 C 759.73 646.82 763.50 647.33 766.66 649.34 C 771.26 652.27 776.08 655.11 779.63 659.34 C 783.27 663.38 785.47 668.43 787.45 673.44 C 789.25 678.07 788.76 683.14 788.85 688.00 C 788.68 692.48 789.24 697.23 787.29 701.42 C 784.95 706.52 783.07 712.02 779.06 716.12 C 774.50 720.92 768.63 725.23 761.77 725.55 C 756.62 725.74 750.99 726.26 746.36 723.56 C 739.75 719.56 735.72 711.64 736.10 703.97 C 736.06 695.86 741.53 688.35 748.73 684.96 C 753.34 683.50 758.31 683.76 763.08 684.08 C 767.18 684.18 770.36 687.04 774.03 688.47 C 775.39 687.78 774.50 685.96 774.45 684.82 C 772.63 675.99 766.14 668.72 758.26 664.66 C 749.65 660.83 739.40 660.80 730.87 664.86 C 726.56 667.45 722.20 670.12 718.53 673.58 C 705.83 687.00 699.16 704.75 694.29 722.25 C 693.30 728.64 690.29 734.53 689.81 741.02 C 689.24 747.19 686.37 752.89 686.10 759.11 C 685.72 769.76 680.02 779.72 681.89 790.55 C 684.08 789.66 686.15 788.50 688.28 787.47 C 690.81 786.26 693.79 786.56 696.31 785.32 C 697.87 782.23 698.01 778.21 700.85 775.90 C 704.08 773.91 708.38 773.84 711.85 775.24 C 715.62 777.50 717.47 782.45 716.48 786.69 C 715.62 789.29 713.93 791.49 712.57 793.83 C 715.10 796.08 718.68 798.26 718.71 802.09 C 719.31 805.93 716.83 810.18 712.78 810.63 C 709.40 811.38 706.48 808.94 703.25 808.68 C 699.91 809.82 696.62 811.57 692.96 811.11 C 688.84 811.22 684.49 809.33 682.64 805.49 C 681.37 802.00 681.51 798.21 680.83 794.60 C 677.08 798.41 678.22 804.39 675.81 808.94 C 671.07 823.95 665.14 838.68 657.05 852.23 C 654.41 856.76 650.37 860.29 647.85 864.89 C 646.47 866.85 647.93 869.11 648.54 871.08 C 647.73 871.73 646.92 872.38 646.12 873.05 C 637.41 865.41 626.19 860.04 614.50 859.57 C 608.26 859.16 602.36 862.94 599.02 868.03 C 593.77 876.68 592.70 887.08 592.77 897.01 C 592.22 908.79 592.82 920.62 594.61 932.28 C 595.03 936.76 596.59 941.11 596.59 945.63 C 595.42 947.45 593.55 948.64 591.82 949.87 C 587.09 952.98 582.23 955.98 576.91 957.99 C 569.45 960.98 561.16 960.37 553.35 959.51 C 548.59 958.95 545.30 955.27 541.65 952.60 C 538.38 952.95 535.31 954.36 532.04 954.78 C 525.90 955.57 520.32 958.81 514.04 958.85 C 504.90 959.17 496.21 962.81 487.03 962.63 C 478.02 962.62 469.01 962.63 460.01 962.29 C 452.87 961.95 446.11 959.18 438.96 958.85 C 432.17 958.62 426.04 955.38 419.42 954.24 C 411.19 951.46 403.01 948.17 395.91 943.08 C 385.12 936.28 377.05 925.16 374.59 912.61 C 374.22 907.05 373.97 901.38 375.00 895.89 C 377.75 886.13 384.24 876.80 394.13 873.31 C 406.72 867.69 422.10 869.84 433.04 878.09 C 437.90 881.61 440.87 887.01 443.79 892.12 C 449.14 902.28 452.85 913.20 457.24 923.79 C 459.41 928.63 462.71 932.86 466.13 936.88 C 469.95 941.48 475.52 944.15 481.09 946.01 C 494.23 949.07 508.40 945.14 518.82 936.78 C 522.81 933.11 526.76 929.32 530.01 924.97 C 535.50 916.67 539.07 907.29 542.13 897.88 C 543.18 895.32 540.36 893.68 538.88 892.10 C 532.61 886.79 526.71 880.25 525.08 871.93 C 522.24 858.27 527.20 843.66 536.32 833.34 C 540.32 828.59 545.66 825.33 550.61 821.69 C 550.68 797.46 550.63 773.23 550.71 749.00 C 550.58 745.32 551.38 741.15 548.99 738.00 C 542.46 729.16 533.57 721.78 523.07 718.21 C 516.68 716.16 510.49 713.10 503.70 712.61 C 498.45 712.22 493.19 712.38 487.94 712.40 C 481.84 712.31 476.28 715.16 470.58 716.94 C 461.11 721.21 452.65 728.52 448.42 738.17 C 444.25 748.21 444.05 760.18 449.23 769.88 C 452.27 774.46 455.93 779.16 461.32 781.00 C 462.44 774.85 463.82 768.09 468.88 763.88 C 475.45 757.37 486.47 755.59 494.48 760.43 C 500.59 764.11 505.86 770.50 505.55 777.99 C 506.56 788.15 498.50 798.19 488.53 799.89 C 469.62 805.53 447.29 796.34 438.09 778.82 C 435.70 773.97 434.61 768.61 433.27 763.40 C 431.52 756.52 434.27 749.71 435.62 743.03 C 436.80 736.93 440.02 731.51 443.19 726.27 C 447.87 719.68 453.15 713.23 460.10 708.93 C 465.63 705.39 471.53 702.15 477.99 700.71 C 484.29 699.41 490.48 697.09 497.01 697.46 C 504.89 696.89 512.49 699.17 520.14 700.64 C 528.82 703.17 537.30 706.86 544.24 712.77 C 545.92 714.66 548.35 714.29 550.53 713.70 C 550.86 668.13 550.56 622.54 550.69 576.97 C 551.10 572.13 546.36 569.59 543.68 566.34 C 538.82 560.53 532.86 555.81 527.26 550.76 C 521.88 545.80 517.37 540.00 512.50 534.57 C 503.76 527.24 496.91 518.04 489.78 509.22 C 480.28 497.96 472.69 485.25 465.72 472.33 C 463.58 468.51 462.17 464.25 459.41 460.82 C 450.45 460.09 441.26 462.79 432.42 460.45 C 424.37 457.39 416.60 452.53 411.87 445.16 C 409.29 441.53 406.05 436.99 408.44 432.42 C 410.90 429.59 414.66 428.32 418.10 427.08 C 427.84 424.30 438.11 427.40 446.59 432.37 C 447.84 432.71 449.91 434.89 450.46 432.72 C 449.98 428.70 448.43 424.88 448.17 420.82 C 447.68 414.87 447.25 408.92 446.56 403.00 C 445.48 392.95 447.54 382.96 447.94 372.94 C 448.24 364.28 451.14 356.05 452.99 347.65 C 461.63 322.31 474.84 297.98 494.30 279.30 C 500.65 273.00 506.77 266.31 514.33 261.40 C 518.56 258.66 522.64 255.70 526.82 252.88 C 531.28 249.76 536.99 248.49 540.55 244.13 C 538.24 241.33 534.49 238.96 534.40 234.98 C 534.24 229.16 533.64 222.84 536.64 217.58 M 557.17 205.46 C 553.16 205.70 550.01 208.68 546.86 210.87 C 539.38 216.25 537.29 226.44 538.80 235.09 C 541.26 236.02 543.74 237.83 546.48 237.39 C 550.48 234.91 554.01 231.64 556.97 227.99 C 561.42 222.45 562.00 214.86 561.27 208.05 C 560.43 206.48 559.13 204.98 557.17 205.46 M 582.97 234.49 C 578.25 234.35 574.46 237.84 569.86 238.36 C 564.42 238.83 559.77 242.02 554.59 243.47 C 545.79 247.49 537.12 251.85 528.72 256.64 C 523.44 260.80 517.14 263.57 512.40 268.40 C 507.23 273.25 501.11 277.07 496.63 282.63 C 493.05 287.06 488.78 290.86 485.39 295.45 C 480.06 301.37 476.25 308.40 472.00 315.08 C 467.89 322.33 464.04 329.77 461.26 337.64 C 458.46 343.24 457.60 349.53 454.82 355.16 C 454.35 360.19 453.58 365.23 451.76 369.99 C 449.34 376.07 451.12 382.70 450.16 389.01 C 449.42 392.95 449.32 397.02 449.84 401.00 C 451.02 406.81 450.07 412.76 450.65 418.61 C 451.89 423.73 454.08 428.65 454.50 433.95 C 454.65 436.41 455.05 439.14 453.33 441.21 C 448.24 437.51 443.23 433.22 437.00 431.69 C 429.04 429.90 420.44 429.67 412.75 432.67 C 412.31 434.09 411.78 435.48 411.49 436.94 C 412.82 441.28 415.80 444.87 419.03 447.96 C 424.40 453.21 431.32 457.49 439.06 457.48 C 443.56 457.76 447.90 456.27 452.40 456.33 C 453.71 455.02 454.75 452.72 457.00 453.33 C 461.61 455.70 463.98 460.57 466.03 465.08 C 473.30 481.22 483.53 495.76 494.20 509.81 C 500.12 517.50 507.02 524.38 513.14 531.92 C 521.68 541.02 530.65 549.69 539.50 558.49 C 544.11 562.98 549.67 566.64 553.24 572.11 C 553.79 574.69 553.50 577.37 553.57 580.00 C 553.55 625.02 553.56 670.03 553.57 715.05 C 553.59 716.72 553.55 718.48 552.18 719.70 C 550.57 719.68 548.76 719.87 547.67 718.44 C 541.83 713.06 535.32 707.66 527.25 706.27 C 523.01 705.46 519.45 702.30 515.01 702.48 C 503.48 700.91 491.65 700.80 480.15 702.83 C 470.44 705.96 461.18 710.71 453.55 717.54 C 446.92 724.46 442.47 733.08 438.58 741.74 C 437.20 744.83 437.74 748.28 437.15 751.53 C 435.64 758.09 436.75 764.94 438.41 771.34 C 441.02 777.11 443.73 783.14 448.46 787.54 C 452.31 791.39 457.32 793.80 462.26 795.96 C 466.90 798.04 472.05 797.53 476.99 797.59 C 482.22 797.55 487.66 797.79 492.59 795.75 C 498.07 793.06 501.31 787.46 503.22 781.88 C 504.19 777.44 501.87 773.12 499.74 769.38 C 497.45 765.11 492.88 763.01 488.72 761.03 C 481.92 758.72 474.75 762.14 469.88 766.88 C 464.92 771.28 465.47 778.61 465.55 784.65 C 463.52 784.53 461.48 784.64 459.49 784.26 C 450.99 779.57 445.32 770.93 442.66 761.76 C 442.24 756.27 442.29 750.73 442.64 745.24 C 443.62 741.80 445.22 738.58 446.56 735.28 C 448.98 729.56 453.58 725.23 458.07 721.10 C 463.34 716.59 469.90 714.03 476.28 711.51 C 479.61 710.03 483.34 710.82 486.82 710.03 C 495.35 708.44 503.91 710.37 512.43 710.75 C 521.80 713.75 530.91 717.69 539.13 723.15 C 544.72 726.70 548.81 732.09 552.40 737.57 C 553.84 739.39 553.50 741.80 553.58 743.97 C 553.51 767.65 553.65 791.33 553.46 815.00 C 553.54 816.62 553.20 818.35 553.85 819.90 C 557.94 819.85 561.85 818.32 565.96 818.40 C 575.56 817.94 584.37 822.75 591.99 828.10 C 602.14 835.41 611.49 843.88 619.63 853.38 C 623.13 856.20 627.94 856.60 632.19 857.66 C 632.30 854.44 633.11 851.31 633.86 848.20 C 634.92 844.37 634.16 840.34 634.91 836.47 C 635.82 831.96 634.98 827.30 636.05 822.81 C 636.63 818.56 636.25 814.22 637.27 810.03 C 637.55 800.71 637.31 791.38 637.46 782.07 C 637.41 779.84 638.71 777.54 641.25 778.07 C 643.03 781.01 643.54 784.61 645.77 787.34 C 648.83 792.19 653.06 796.19 658.06 799.00 C 658.61 797.57 659.18 796.15 659.75 794.73 C 662.37 794.06 664.94 793.20 667.52 792.35 C 667.53 785.64 667.73 778.92 667.37 772.22 C 666.63 769.08 664.59 766.43 663.24 763.54 C 659.57 756.55 652.63 750.35 644.38 750.31 C 643.19 753.58 642.15 756.96 639.94 759.73 C 638.81 757.62 637.22 755.52 637.44 753.01 C 637.46 724.67 637.34 696.32 637.50 667.99 C 637.20 665.17 641.43 663.95 642.36 666.79 C 645.56 672.11 649.47 676.98 652.58 682.36 C 656.67 690.74 661.37 698.91 663.94 707.93 C 664.86 711.42 667.33 714.40 667.54 718.09 C 668.06 723.30 669.83 728.24 671.25 733.24 C 671.92 742.49 672.46 751.76 673.54 760.98 C 673.33 770.01 671.10 778.91 671.50 787.99 C 671.79 793.62 667.72 798.33 667.58 803.94 C 667.59 808.99 664.00 813.08 663.51 818.03 C 663.26 821.61 660.98 824.53 659.45 827.66 C 655.74 834.76 651.73 841.71 647.26 848.36 C 644.33 852.70 640.72 856.55 637.98 861.03 C 639.68 862.07 641.41 863.08 643.16 864.06 C 646.57 861.00 648.73 856.93 651.36 853.24 C 656.18 846.63 659.35 839.03 663.04 831.79 C 664.10 825.93 667.10 820.74 669.45 815.35 C 671.90 811.08 671.77 805.98 673.71 801.52 C 676.81 794.31 675.49 786.11 678.34 778.83 C 680.37 774.05 678.96 768.75 680.49 763.86 C 682.09 757.99 684.42 752.23 684.46 746.05 C 684.33 739.75 688.37 734.31 688.49 728.04 C 688.59 724.31 690.77 721.13 691.64 717.59 C 693.42 709.44 696.72 701.71 700.11 694.12 C 706.34 680.38 716.22 667.71 729.99 660.99 C 733.53 659.53 736.94 657.16 740.95 657.47 C 745.70 657.68 750.81 656.62 755.21 658.94 C 761.07 661.56 767.50 664.05 771.45 669.42 C 774.17 673.13 776.56 677.16 778.30 681.42 C 778.56 687.45 779.17 693.68 777.81 699.62 C 777.29 699.57 776.25 699.46 775.73 699.40 C 771.93 691.13 762.39 685.27 753.30 687.85 C 749.06 689.36 745.08 691.87 742.55 695.65 C 739.43 701.79 739.75 709.63 743.55 715.40 C 746.32 718.57 750.05 720.95 753.98 722.42 C 762.82 723.79 771.76 718.92 776.97 711.94 C 779.31 708.71 782.11 705.54 782.73 701.46 C 783.64 696.63 785.87 692.02 785.59 687.02 C 785.97 682.27 784.18 677.80 782.87 673.34 C 781.60 669.01 779.14 665.14 776.41 661.59 C 772.03 656.20 765.48 653.40 759.35 650.55 C 752.58 647.85 745.16 648.70 738.20 649.97 C 733.06 652.07 727.88 654.22 723.20 657.25 C 716.83 661.43 712.31 667.68 707.13 673.14 C 698.87 683.80 694.12 696.57 688.82 708.83 C 687.92 713.04 686.49 717.08 684.73 721.02 C 684.40 725.25 683.58 729.43 682.36 733.52 C 681.10 733.51 679.84 733.51 678.59 733.54 C 675.87 728.31 676.20 722.28 675.07 716.65 C 673.52 712.38 672.06 708.09 671.11 703.65 C 668.57 696.51 665.30 689.65 662.17 682.75 C 657.14 671.95 650.44 662.05 643.80 652.19 C 641.05 648.07 636.44 644.39 636.56 639.02 C 636.62 568.01 636.54 497.00 636.60 426.00 C 636.47 420.26 637.90 414.65 638.47 408.97 C 638.82 403.25 638.07 397.45 639.35 391.82 C 639.82 387.40 642.22 383.46 642.66 379.04 C 643.07 375.72 644.73 372.78 646.06 369.77 C 649.02 362.20 654.32 355.80 659.99 350.08 C 665.87 345.55 671.63 340.63 678.53 337.68 C 683.49 335.80 688.17 332.97 693.60 332.67 C 698.67 332.48 703.45 330.66 708.39 329.68 C 711.30 329.12 714.88 330.44 717.12 327.91 C 718.70 325.46 717.25 321.63 714.01 321.62 C 634.48 321.41 554.93 321.76 475.40 321.44 C 475.58 319.70 475.26 317.78 476.36 316.29 C 478.79 312.17 481.40 308.13 484.52 304.48 C 487.77 300.68 490.08 296.16 493.54 292.52 C 496.13 289.79 498.86 287.18 501.51 284.51 C 507.24 278.50 514.27 274.00 520.68 268.78 C 529.93 262.33 540.10 257.30 550.24 252.41 C 553.45 250.61 557.27 250.44 560.51 248.71 C 564.92 246.27 570.16 246.31 574.64 244.01 C 578.72 241.79 583.45 243.05 587.79 241.90 C 604.20 237.72 621.42 237.67 638.15 239.65 C 643.23 240.39 648.13 242.23 653.29 242.55 C 657.96 242.98 662.30 244.88 666.73 246.28 C 678.30 250.55 690.23 254.33 700.44 261.49 C 710.32 266.86 718.71 274.47 726.65 282.36 C 738.89 294.78 747.88 310.13 753.59 326.55 C 755.95 334.54 758.59 342.56 758.45 350.99 C 758.17 362.72 759.68 375.00 755.17 386.13 C 754.08 389.24 753.81 392.59 752.50 395.63 C 748.36 404.92 743.75 414.25 736.66 421.68 C 733.48 425.13 730.01 428.33 726.40 431.31 C 724.82 432.81 722.53 432.38 720.56 432.60 C 720.37 428.99 721.20 425.10 719.41 421.79 C 717.73 418.54 716.32 414.90 713.40 412.54 C 708.66 409.32 703.03 406.03 697.11 407.82 C 692.36 409.75 687.30 412.17 684.68 416.83 C 680.96 423.19 681.93 431.34 685.27 437.64 C 689.28 442.66 695.72 444.56 701.53 446.66 C 706.07 448.57 710.45 445.05 714.88 444.22 C 719.88 443.21 723.57 439.57 727.68 436.86 C 730.08 435.25 732.54 433.66 734.47 431.48 C 744.13 420.49 753.80 408.85 758.24 394.66 C 759.50 389.73 762.56 385.23 762.45 380.00 C 762.59 373.88 765.53 368.18 765.44 362.05 C 765.41 356.71 765.53 351.36 765.37 346.03 C 764.94 341.51 763.44 337.19 762.67 332.73 C 762.37 329.85 762.46 326.89 761.42 324.13 C 759.40 318.48 757.58 312.73 754.82 307.39 C 751.95 300.05 748.19 293.00 743.03 287.01 C 739.12 282.56 736.61 276.92 731.88 273.22 C 727.17 269.60 723.30 265.04 718.47 261.57 C 709.51 254.14 699.25 248.44 688.66 243.71 C 683.61 242.52 679.15 239.73 674.13 238.52 C 669.60 237.67 665.46 235.46 660.95 234.64 C 653.13 234.36 645.89 230.60 638.05 230.49 C 627.02 230.39 615.98 230.42 604.95 230.49 C 597.42 230.55 590.49 234.41 582.97 234.49 M 634.84 255.76 C 634.25 256.58 634.14 257.46 634.50 258.42 C 636.70 259.48 639.11 260.04 641.49 260.60 C 641.53 261.08 641.63 262.04 641.68 262.52 C 639.05 262.31 636.44 262.63 634.06 263.80 C 639.35 273.03 648.02 280.36 657.92 284.25 C 661.76 285.92 665.48 288.71 669.88 288.40 C 671.83 288.57 673.14 286.83 674.24 285.48 C 674.81 280.62 674.66 275.58 672.66 271.04 C 670.88 264.42 665.11 260.05 659.87 256.16 C 652.05 252.54 642.84 252.79 634.84 255.76 M 656.57 633.45 C 654.50 635.28 653.80 638.32 653.68 640.98 C 654.70 646.36 655.09 652.09 658.21 656.79 C 661.89 663.09 667.99 669.07 675.50 669.94 C 676.32 668.14 676.55 666.18 676.69 664.24 C 677.08 664.32 677.86 664.48 678.25 664.56 C 679.04 666.39 679.87 668.19 680.74 670.00 C 681.45 669.64 682.89 668.92 683.60 668.56 C 683.37 664.61 684.01 660.57 683.17 656.69 C 680.77 651.18 678.72 645.05 673.72 641.29 C 669.73 637.80 664.48 636.56 659.88 634.13 C 658.87 633.55 657.71 633.35 656.57 633.45 M 642.01 673.53 C 640.81 676.54 640.51 679.78 640.66 683.01 C 640.97 704.02 640.35 725.04 640.97 746.05 C 644.03 746.24 647.21 745.97 650.16 746.99 C 657.80 750.32 663.19 756.87 668.02 763.40 C 668.43 763.28 669.25 763.05 669.66 762.94 C 670.17 755.97 669.62 748.95 669.06 742.00 C 667.75 736.49 666.10 731.05 665.58 725.38 C 660.80 708.75 654.38 692.46 645.41 677.62 C 644.44 676.11 643.21 674.81 642.01 673.53 M 700.72 781.62 C 700.39 784.11 700.61 786.63 700.66 789.14 C 703.87 789.54 707.48 791.63 710.44 789.31 C 713.30 788.07 712.57 784.71 712.52 782.21 C 712.67 779.87 710.21 778.72 708.47 777.79 C 705.35 776.85 702.50 779.33 700.72 781.62 M 641.96 788.62 C 641.43 790.35 640.82 792.09 640.72 793.93 C 640.42 809.09 641.11 824.51 637.57 839.38 C 637.03 844.11 636.00 849.08 637.73 853.69 C 640.94 850.83 643.53 847.36 645.71 843.67 C 650.13 836.24 654.87 828.92 657.95 820.80 C 660.12 815.49 662.85 810.10 662.21 804.18 C 659.21 803.68 655.65 804.01 653.35 801.65 C 649.17 797.64 646.24 792.53 641.96 788.62 M 691.35 790.17 C 688.69 791.52 685.98 793.25 684.57 795.98 C 684.39 797.97 684.39 799.99 684.63 801.99 C 686.39 804.55 689.12 806.43 692.01 807.51 C 696.60 808.54 700.30 804.81 702.41 801.18 C 703.41 797.47 701.53 793.62 698.37 791.62 C 696.31 790.38 693.71 788.48 691.35 790.17 M 706.99 803.00 C 708.29 804.35 709.62 805.70 710.99 807.02 C 712.37 805.69 713.74 804.35 715.10 803.00 C 713.75 801.63 712.37 800.30 711.00 798.98 C 709.63 800.29 708.29 801.63 706.99 803.00 M 383.78 885.66 C 380.15 890.16 379.16 896.00 377.92 901.48 C 376.85 906.07 378.46 910.64 379.35 915.11 C 381.05 924.78 387.80 932.77 395.49 938.48 C 404.24 945.23 414.79 948.89 425.14 952.33 C 430.42 953.01 435.49 954.65 440.65 955.91 C 448.68 957.42 456.88 957.25 464.95 958.41 C 474.63 958.19 484.43 959.20 494.02 957.55 C 497.39 957.30 500.81 957.59 504.15 956.93 C 511.18 956.14 517.81 953.39 524.86 952.69 C 529.81 952.36 534.26 950.01 538.90 948.49 C 538.30 943.67 535.58 938.97 536.92 934.05 C 538.16 928.43 542.43 924.09 547.26 921.27 C 555.88 916.26 565.84 914.18 575.63 913.01 C 572.98 910.63 569.40 909.97 566.21 908.64 C 559.33 906.05 553.10 902.11 546.91 898.21 C 546.39 898.61 545.35 899.42 544.83 899.82 C 544.50 904.66 541.98 908.90 540.51 913.43 C 539.03 917.88 536.37 921.80 533.70 925.61 C 531.04 929.58 528.54 933.72 525.01 937.01 C 519.88 942.52 512.76 945.52 505.86 948.15 C 499.35 949.34 492.82 951.36 486.14 950.35 C 481.31 949.39 476.20 948.93 471.94 946.27 C 460.01 939.34 452.37 926.73 449.27 913.54 C 446.27 908.47 445.12 902.62 442.38 897.43 C 439.25 889.64 433.26 883.44 426.77 878.33 C 420.86 873.72 413.03 874.50 406.00 874.50 C 397.26 873.84 388.93 878.87 383.78 885.66 Z" />
<path fill="#b5dae0" opacity="1.00" d=" M 526.46 278.76 C 534.05 276.98 542.60 277.48 549.24 281.92 C 555.79 285.15 560.57 291.28 562.53 298.27 C 562.95 300.84 562.88 304.73 559.83 305.64 C 555.83 307.08 551.76 308.41 547.59 309.29 C 542.74 309.92 537.83 309.68 532.96 309.65 C 528.27 309.69 524.16 307.09 519.62 306.36 C 517.12 305.81 514.48 305.78 512.11 304.80 C 509.13 302.05 506.36 297.63 508.64 293.60 C 512.08 286.40 519.21 281.60 526.46 278.76 M 512.09 294.20 C 514.40 295.66 516.94 296.70 519.50 297.62 C 519.47 299.20 519.45 300.79 519.43 302.38 C 522.56 303.30 525.70 304.40 529.00 304.48 C 532.91 304.40 536.77 306.19 540.66 305.02 C 546.14 303.66 552.72 306.00 557.39 302.06 C 558.50 297.52 556.63 292.83 553.05 289.95 C 548.14 284.80 541.12 281.94 533.99 282.38 C 525.11 281.87 517.42 287.62 512.09 294.20 Z" />
<path fill="#b5dae0" opacity="1.00" d=" M 471.47 329.65 C 474.89 329.22 478.45 329.39 481.71 330.63 C 487.53 332.86 494.04 332.51 499.60 335.56 C 508.55 338.39 516.52 343.49 524.02 349.04 C 535.90 357.54 543.56 370.69 548.26 384.26 C 548.61 390.52 551.10 396.33 552.35 402.40 C 552.58 408.65 552.46 414.91 553.43 421.11 C 553.67 465.60 553.59 510.09 553.49 554.58 C 551.65 554.57 549.82 554.53 548.00 554.49 C 547.25 552.00 545.24 550.28 543.39 548.60 C 533.57 539.76 524.69 529.97 515.71 520.30 C 509.53 513.11 502.74 506.39 497.54 498.43 C 493.38 493.15 489.21 487.88 485.94 481.99 C 476.26 469.41 470.79 454.38 464.10 440.16 C 462.32 436.43 462.28 432.20 460.78 428.38 C 457.43 421.63 458.45 413.86 456.73 406.67 C 454.78 398.97 455.61 390.97 455.57 383.12 C 456.61 375.49 458.57 367.95 458.64 360.21 C 459.48 356.04 462.04 352.35 462.41 348.03 C 462.67 343.76 465.51 340.32 466.59 336.28 C 467.32 333.55 468.71 330.80 471.47 329.65 M 469.42 339.40 C 467.48 344.61 465.17 349.75 464.24 355.27 C 463.26 361.15 461.02 366.78 460.58 372.76 C 459.92 381.48 459.42 390.24 459.91 398.99 C 460.34 405.64 460.22 412.43 462.22 418.86 C 463.44 422.82 464.14 426.90 465.14 430.91 C 473.05 456.69 487.19 480.12 503.84 501.17 C 510.27 508.42 516.06 516.22 522.89 523.12 C 528.21 528.79 533.77 534.23 539.12 539.88 C 542.37 542.91 545.30 546.37 549.00 548.89 C 549.34 548.79 550.02 548.57 550.36 548.46 C 551.16 541.34 550.44 534.15 550.67 527.00 C 550.47 518.85 551.06 510.67 550.42 502.54 C 550.08 502.47 549.42 502.33 549.09 502.26 C 545.71 507.27 544.91 513.98 540.03 518.01 C 537.82 519.37 534.81 519.93 532.45 518.62 C 528.75 516.71 526.35 513.13 524.33 509.62 C 521.04 504.01 521.24 497.20 521.65 490.93 C 522.04 484.71 525.96 479.46 530.17 475.17 C 533.68 471.59 538.73 468.82 543.88 469.92 C 546.86 471.61 547.01 476.23 550.54 477.39 C 550.82 471.26 550.62 465.13 550.65 459.00 C 550.55 444.99 550.98 430.95 549.83 416.97 C 549.32 409.96 547.44 403.14 546.82 396.14 C 546.50 392.07 545.23 388.18 543.90 384.35 C 537.45 360.88 516.22 343.92 493.43 337.48 C 487.56 335.31 481.32 334.13 475.06 334.21 C 472.05 333.99 470.39 337.02 469.42 339.40 M 537.56 473.60 C 532.70 477.08 528.56 481.57 525.97 487.00 C 523.76 490.27 524.55 494.34 524.42 498.05 C 524.08 503.01 527.20 507.27 529.73 511.25 C 532.13 512.58 534.74 514.18 537.51 514.38 C 541.22 511.51 543.36 507.09 544.69 502.69 C 547.86 493.76 546.80 483.90 544.06 475.00 C 543.32 472.12 539.51 471.75 537.56 473.60 Z" />
<path fill="#b5dae0" opacity="1.00" d=" M 502.37 376.62 C 506.75 375.99 511.26 375.94 515.65 376.58 C 519.43 377.21 521.42 381.84 520.11 385.25 C 518.43 390.72 517.13 396.36 514.48 401.47 C 510.62 410.34 502.96 416.67 495.80 422.81 C 492.43 426.13 486.70 427.08 482.81 424.16 C 477.89 420.36 476.85 413.83 477.19 407.99 C 476.50 393.18 488.44 380.05 502.37 376.62 M 496.33 383.21 C 491.14 386.19 486.37 390.39 483.66 395.81 C 481.22 403.63 479.75 413.14 484.98 420.19 C 487.43 418.27 488.13 415.25 488.71 412.37 C 489.14 412.37 490.00 412.39 490.43 412.40 C 490.36 414.99 490.62 417.58 491.78 419.94 C 499.77 414.76 507.41 408.06 511.33 399.20 C 512.47 394.33 516.15 390.14 515.63 384.94 C 516.25 381.41 512.28 378.72 509.07 379.57 C 504.76 380.50 500.39 381.46 496.33 383.21 Z" />
<path fill="#b5dae0" opacity="1.00" d=" M 723.44 389.64 C 727.05 388.54 730.98 389.80 733.51 392.53 C 736.45 395.11 735.73 399.47 735.62 402.96 C 735.58 406.20 733.02 409.20 729.77 409.52 C 726.19 409.82 722.17 409.91 719.05 407.88 C 716.37 405.40 714.41 401.37 715.87 397.74 C 717.26 394.28 719.82 390.92 723.44 389.64 M 724.51 393.80 C 722.69 394.54 720.24 395.75 720.56 398.10 C 720.61 400.42 719.98 403.28 722.02 404.98 C 723.72 407.29 726.97 406.44 729.43 406.23 C 731.69 404.31 734.41 401.06 732.78 397.97 C 731.74 394.68 727.65 393.26 724.51 393.80 Z" />
<path fill="#b5dae0" opacity="1.00" d=" M 491.55 532.76 C 495.11 531.95 499.64 531.63 502.16 534.84 C 507.58 539.26 506.87 549.10 500.49 552.28 C 496.26 552.91 491.44 553.39 487.50 551.47 C 482.34 546.01 484.11 535.28 491.55 532.76 M 492.68 538.44 C 490.51 539.41 489.99 542.11 489.02 544.07 C 490.85 545.69 492.14 548.80 494.96 548.70 C 499.33 549.63 502.60 542.66 499.16 539.81 C 497.71 537.67 494.85 538.33 492.68 538.44 Z" />
<path fill="#b5dae0" opacity="1.00" d=" M 498.26 558.03 C 503.50 556.70 508.80 558.40 513.76 560.00 C 524.00 563.03 532.28 570.86 537.26 580.15 C 537.84 584.05 534.92 587.74 532.45 590.52 C 528.57 592.31 524.16 592.26 519.98 592.48 C 515.25 592.48 510.32 593.04 505.80 591.30 C 496.31 588.15 488.27 581.55 482.26 573.68 C 480.06 571.03 479.70 566.80 482.40 564.35 C 486.57 560.20 492.87 559.65 498.26 558.03 M 484.53 566.63 C 483.51 567.50 483.17 568.60 483.52 569.93 C 487.85 576.68 494.08 581.96 500.84 586.15 C 510.00 590.26 521.07 590.92 530.11 586.11 C 528.89 583.56 526.32 582.49 523.67 582.18 C 523.54 581.74 523.29 580.87 523.16 580.43 C 526.46 580.31 530.10 581.22 533.06 579.30 C 526.75 567.52 513.27 560.24 499.95 561.50 C 494.66 562.37 488.26 562.09 484.53 566.63 Z" />
<path fill="#b5dae0" opacity="1.00" d=" M 717.36 618.65 C 722.40 617.96 727.59 617.98 732.64 618.62 C 737.15 619.72 741.20 622.32 744.72 625.28 C 747.18 627.20 747.37 630.76 746.42 633.52 C 744.30 636.69 740.85 638.60 737.79 640.75 C 734.04 643.05 730.65 646.34 726.11 646.94 C 720.03 647.98 714.27 650.78 708.01 650.65 C 703.68 650.97 699.91 647.42 698.51 643.59 C 697.92 639.17 699.92 634.86 702.24 631.21 C 705.82 625.66 710.87 620.54 717.36 618.65 M 710.57 626.63 C 706.31 629.78 704.17 634.81 703.29 639.90 C 705.96 641.19 708.36 642.99 710.03 645.49 C 714.67 645.61 719.33 645.04 723.84 644.02 C 729.88 641.30 735.67 637.95 740.91 633.90 C 741.96 632.74 744.15 631.44 743.18 629.61 C 741.38 625.51 736.67 624.64 733.02 622.91 C 725.63 619.29 716.93 622.19 710.57 626.63 Z" />
<path fill="#b5dae0" opacity="1.00" d=" M 493.22 643.94 C 498.28 641.81 502.60 645.83 506.02 649.01 C 511.10 653.94 517.32 657.71 521.57 663.47 C 524.89 667.69 526.94 672.73 530.04 677.12 C 531.55 679.54 533.75 681.93 533.55 685.00 C 533.54 689.45 531.77 695.03 526.75 695.91 C 517.48 697.67 507.99 694.53 499.86 690.21 C 492.49 685.10 487.97 676.74 485.65 668.24 C 484.35 661.91 484.95 655.01 488.17 649.32 C 489.39 647.19 490.72 644.73 493.22 643.94 M 491.25 651.33 C 490.00 654.78 488.25 658.22 488.40 661.98 C 488.07 666.13 489.90 669.94 490.94 673.86 C 492.29 679.18 496.56 683.02 500.44 686.62 C 503.86 689.93 508.75 690.53 513.03 692.13 C 517.72 693.79 523.33 694.60 527.91 692.21 C 524.01 685.67 514.84 684.47 512.02 677.17 C 518.22 678.15 522.25 684.74 528.66 684.73 C 528.67 682.50 528.78 680.14 527.73 678.11 C 525.25 672.85 522.08 667.92 518.58 663.28 C 513.63 656.80 506.01 653.30 500.06 647.91 C 498.79 647.01 497.67 645.54 496.02 645.47 C 493.76 646.76 492.11 648.89 491.25 651.33 Z" />
<path fill="#b5dae0" opacity="1.00" d=" M 504.27 717.12 C 512.71 714.97 522.18 717.48 528.00 724.07 C 530.96 727.13 531.88 733.33 527.50 735.58 C 522.79 737.75 518.06 740.17 512.95 741.21 C 506.35 741.86 499.58 741.61 493.09 740.17 C 490.05 739.62 487.24 737.24 486.97 734.04 C 487.37 729.17 491.52 726.08 494.70 722.88 C 497.33 720.18 500.54 717.93 504.27 717.12 M 502.11 721.01 C 497.08 723.48 491.61 726.98 490.48 732.91 C 491.32 737.15 496.33 737.71 499.84 738.35 C 503.77 738.56 507.82 740.33 511.67 738.69 C 516.34 736.98 520.93 735.03 525.65 733.42 C 525.56 730.48 525.18 727.55 524.11 724.80 C 521.31 722.43 517.88 720.78 514.46 719.56 C 510.34 719.40 505.77 718.64 502.11 721.01 Z" />
<path fill="#b5dae0" opacity="1.00" d=" M 718.48 721.81 C 723.25 720.70 728.22 721.10 733.08 721.15 C 738.19 721.11 743.22 723.62 746.51 727.47 C 747.59 734.52 741.57 739.71 738.03 745.07 C 731.80 754.62 721.74 760.73 711.50 765.19 C 707.77 766.27 703.40 768.56 699.68 766.29 C 697.46 765.07 695.28 763.16 694.87 760.53 C 694.03 751.10 696.54 741.55 701.62 733.60 C 705.59 727.73 711.93 724.10 718.48 721.81 M 711.10 730.07 C 705.24 734.76 700.80 741.51 699.90 749.07 C 699.72 751.53 698.40 754.92 700.99 756.52 C 703.87 757.13 705.58 754.17 707.77 752.84 C 707.49 754.43 707.69 756.25 706.61 757.60 C 705.89 759.25 703.40 760.90 705.23 762.68 C 708.28 762.62 710.88 760.80 713.64 759.73 C 720.34 756.48 726.88 752.50 731.87 746.90 C 734.68 743.01 737.14 738.86 740.13 735.08 C 741.81 733.33 741.55 730.87 741.75 728.66 C 736.32 726.03 730.30 723.18 724.14 724.86 C 719.72 726.35 714.74 726.88 711.10 730.07 Z" />
<path fill="#b5dae0" opacity="1.00" d=" M 684.09 831.17 C 689.67 827.52 696.58 827.90 702.93 828.47 C 709.08 829.35 713.93 833.58 718.21 837.78 C 719.95 839.77 722.59 838.16 724.67 837.74 C 735.05 834.31 747.12 833.64 756.95 839.09 C 768.00 845.13 775.14 856.56 778.62 868.39 C 781.37 877.62 779.73 888.11 773.73 895.73 C 764.12 908.88 748.96 916.34 733.85 921.29 C 739.30 924.57 745.51 926.49 750.52 930.51 C 756.33 934.94 762.23 941.15 761.91 949.00 C 762.18 955.60 758.22 961.33 754.06 966.08 C 750.80 969.84 746.10 972.44 741.04 972.43 C 732.65 972.99 725.05 968.32 719.05 962.91 C 713.92 958.42 710.02 952.78 705.70 947.56 C 700.44 958.33 696.31 969.74 689.81 979.88 C 686.55 984.28 682.02 989.06 676.05 988.69 C 669.50 988.85 665.12 982.87 662.68 977.51 C 659.58 969.07 659.17 959.90 659.44 951.00 C 659.37 946.57 659.55 941.65 656.85 937.90 C 653.50 936.82 649.87 938.04 647.51 940.53 C 641.84 945.72 640.73 953.79 639.90 961.02 C 638.67 969.97 639.35 979.03 638.72 988.02 C 638.47 992.26 636.86 996.71 633.38 999.35 C 630.23 1001.52 626.13 1002.24 622.42 1001.47 C 619.32 1000.78 617.07 998.41 614.91 996.26 C 618.59 996.79 623.05 999.29 626.29 996.32 C 629.77 992.89 629.22 987.47 629.33 982.99 C 628.89 974.71 630.15 966.50 630.50 958.25 C 631.18 950.77 633.41 943.13 638.34 937.31 C 641.40 933.62 645.95 931.45 650.60 930.62 C 656.32 929.55 662.36 933.83 663.26 939.59 C 664.38 947.67 664.62 955.84 664.92 963.98 C 665.62 970.36 667.08 977.41 672.15 981.83 C 674.90 984.51 679.34 983.25 681.80 980.80 C 685.45 977.13 687.42 972.23 689.78 967.71 C 697.48 952.99 702.76 937.15 707.31 921.22 C 710.47 908.72 714.20 896.00 713.22 882.97 C 712.80 875.35 708.95 867.65 702.27 863.68 C 697.40 860.71 691.84 858.08 685.98 858.74 C 678.67 859.73 671.28 859.70 663.98 860.80 C 666.27 859.20 669.10 858.05 670.69 855.66 C 671.36 852.53 669.88 849.16 671.26 846.16 C 674.20 840.24 677.80 834.03 684.09 831.17 M 685.82 834.80 C 681.41 838.40 677.07 842.57 675.26 848.13 C 676.70 849.66 678.10 851.35 680.04 852.30 C 684.35 852.65 688.70 852.48 693.03 852.71 C 696.05 853.17 698.33 850.92 700.73 849.52 C 705.41 846.33 710.70 844.02 714.85 840.10 C 712.53 837.78 710.37 834.92 707.03 834.10 C 700.18 832.05 692.33 831.41 685.82 834.80 Z" />
<path fill="#b5dae0" opacity="1.00" d=" M 483.67 864.54 C 489.71 862.85 497.23 863.33 501.47 868.51 C 506.77 873.47 505.90 881.45 504.59 887.89 C 507.10 887.31 510.02 885.76 512.42 887.50 C 514.51 888.81 516.42 890.67 517.23 893.07 C 516.88 897.49 512.38 902.15 507.72 900.53 C 503.81 899.58 502.65 895.39 501.36 892.14 C 496.55 894.16 491.59 897.74 486.13 896.09 C 481.33 894.33 476.52 891.33 474.42 886.47 C 472.64 882.92 472.02 878.62 473.82 874.96 C 475.90 870.66 478.58 865.64 483.67 864.54 M 484.38 867.36 C 480.92 869.15 478.71 872.59 476.91 875.94 C 473.80 880.26 477.50 885.33 479.89 889.09 C 484.76 893.40 492.62 893.66 498.02 890.10 C 500.87 887.50 503.11 883.90 503.45 880.00 C 503.54 875.65 499.97 872.68 497.16 869.90 C 494.03 866.47 488.55 865.55 484.38 867.36 M 506.32 891.52 C 506.66 893.44 505.82 896.04 507.76 897.30 C 508.89 897.70 510.14 897.58 511.33 897.45 C 513.18 896.03 512.36 893.44 512.69 891.45 C 510.62 890.29 508.40 890.59 506.32 891.52 Z" />
<path fill="#b5dae0" opacity="1.00" d=" M 635.70 893.92 C 637.42 895.08 638.99 896.44 640.45 897.92 C 639.34 899.06 638.24 900.20 637.13 901.35 C 634.87 900.28 632.43 899.59 630.25 898.38 L 630.43 897.84 C 631.99 897.61 633.57 897.44 635.15 897.28 C 635.32 896.15 635.51 895.03 635.70 893.92 Z" />
<path fill="#b5dae0" opacity="1.00" d=" M 610.41 898.47 C 614.95 897.41 620.79 901.65 619.55 906.60 C 618.15 912.00 609.93 912.06 606.81 908.24 C 605.27 904.74 605.85 899.20 610.41 898.47 Z" />
<path fill="#b5dae0" opacity="1.00" d=" M 683.37 906.46 C 687.45 905.83 692.21 909.28 691.51 913.72 C 691.22 920.75 678.79 920.61 678.27 913.78 C 677.31 910.30 680.29 907.37 683.37 906.46 Z" />
<path fill="#b5dae0" opacity="1.00" d=" M 640.61 915.30 C 644.12 916.63 644.58 922.19 648.98 921.76 C 653.38 922.82 655.08 918.19 658.31 916.44 C 659.10 922.09 653.44 926.69 648.06 925.39 C 643.11 925.01 639.82 920.05 640.61 915.30 Z" />
</g>
<g id="#ffffffff">
<path fill="#ffffff" opacity="1.00" d=" M 571.41 66.48 C 652.38 61.92 734.44 78.73 807.00 114.98 C 841.18 131.90 873.30 152.96 902.61 177.36 C 913.75 186.51 924.17 196.46 934.72 206.28 C 976.85 248.06 1011.75 297.11 1037.40 350.62 C 1094.54 469.02 1105.81 608.47 1069.78 734.79 C 1050.16 803.70 1016.54 868.63 971.17 924.11 C 949.72 950.18 925.87 974.33 899.80 995.78 C 843.43 1042.15 776.48 1075.69 705.40 1092.41 C 618.53 1112.95 525.80 1108.14 441.59 1078.46 C 346.29 1045.25 262.79 980.80 204.06 898.99 C 159.18 836.67 128.41 764.35 114.03 688.93 C 95.83 594.10 102.85 494.37 135.34 403.36 C 157.79 340.11 192.25 281.04 236.76 230.78 C 274.56 188.20 319.44 151.82 369.42 124.48 C 431.25 90.30 500.85 70.25 571.41 66.48 M 536.64 217.58 C 533.64 222.84 534.24 229.16 534.40 234.98 C 534.49 238.96 538.24 241.33 540.55 244.13 C 536.99 248.49 531.28 249.76 526.82 252.88 C 522.64 255.70 518.56 258.66 514.33 261.40 C 506.77 266.31 500.65 273.00 494.30 279.30 C 474.84 297.98 461.63 322.31 452.99 347.65 C 451.14 356.05 448.24 364.28 447.94 372.94 C 447.54 382.96 445.48 392.95 446.56 403.00 C 447.25 408.92 447.68 414.87 448.17 420.82 C 448.43 424.88 449.98 428.70 450.46 432.72 C 449.91 434.89 447.84 432.71 446.59 432.37 C 438.11 427.40 427.84 424.30 418.10 427.08 C 414.66 428.32 410.90 429.59 408.44 432.42 C 406.05 436.99 409.29 441.53 411.87 445.16 C 416.60 452.53 424.37 457.39 432.42 460.45 C 441.26 462.79 450.45 460.09 459.41 460.82 C 462.17 464.25 463.58 468.51 465.72 472.33 C 472.69 485.25 480.28 497.96 489.78 509.22 C 496.91 518.04 503.76 527.24 512.50 534.57 C 517.37 540.00 521.88 545.80 527.26 550.76 C 532.86 555.81 538.82 560.53 543.68 566.34 C 546.36 569.59 551.10 572.13 550.69 576.97 C 550.56 622.54 550.86 668.13 550.53 713.70 C 548.35 714.29 545.92 714.66 544.24 712.77 C 537.30 706.86 528.82 703.17 520.14 700.64 C 512.49 699.17 504.89 696.89 497.01 697.46 C 490.48 697.09 484.29 699.41 477.99 700.71 C 471.53 702.15 465.63 705.39 460.10 708.93 C 453.15 713.23 447.87 719.68 443.19 726.27 C 440.02 731.51 436.80 736.93 435.62 743.03 C 434.27 749.71 431.52 756.52 433.27 763.40 C 434.61 768.61 435.70 773.97 438.09 778.82 C 447.29 796.34 469.62 805.53 488.53 799.89 C 498.50 798.19 506.56 788.15 505.55 777.99 C 505.86 770.50 500.59 764.11 494.48 760.43 C 486.47 755.59 475.45 757.37 468.88 763.88 C 463.82 768.09 462.44 774.85 461.32 781.00 C 455.93 779.16 452.27 774.46 449.23 769.88 C 444.05 760.18 444.25 748.21 448.42 738.17 C 452.65 728.52 461.11 721.21 470.58 716.94 C 476.28 715.16 481.84 712.31 487.94 712.40 C 493.19 712.38 498.45 712.22 503.70 712.61 C 510.49 713.10 516.68 716.16 523.07 718.21 C 533.57 721.78 542.46 729.16 548.99 738.00 C 551.38 741.15 550.58 745.32 550.71 749.00 C 550.63 773.23 550.68 797.46 550.61 821.69 C 545.66 825.33 540.32 828.59 536.32 833.34 C 527.20 843.66 522.24 858.27 525.08 871.93 C 526.71 880.25 532.61 886.79 538.88 892.10 C 540.36 893.68 543.18 895.32 542.13 897.88 C 539.07 907.29 535.50 916.67 530.01 924.97 C 526.76 929.32 522.81 933.11 518.82 936.78 C 508.40 945.14 494.23 949.07 481.09 946.01 C 475.52 944.15 469.95 941.48 466.13 936.88 C 462.71 932.86 459.41 928.63 457.24 923.79 C 452.85 913.20 449.14 902.28 443.79 892.12 C 440.87 887.01 437.90 881.61 433.04 878.09 C 422.10 869.84 406.72 867.69 394.13 873.31 C 384.24 876.80 377.75 886.13 375.00 895.89 C 373.97 901.38 374.22 907.05 374.59 912.61 C 377.05 925.16 385.12 936.28 395.91 943.08 C 403.01 948.17 411.19 951.46 419.42 954.24 C 426.04 955.38 432.17 958.62 438.96 958.85 C 446.11 959.18 452.87 961.95 460.01 962.29 C 469.01 962.63 478.02 962.62 487.03 962.63 C 496.21 962.81 504.90 959.17 514.04 958.85 C 520.32 958.81 525.90 955.57 532.04 954.78 C 535.31 954.36 538.38 952.95 541.65 952.60 C 545.30 955.27 548.59 958.95 553.35 959.51 C 561.16 960.37 569.45 960.98 576.91 957.99 C 582.23 955.98 587.09 952.98 591.82 949.87 C 593.55 948.64 595.42 947.45 596.59 945.63 C 596.59 941.11 595.03 936.76 594.61 932.28 C 592.82 920.62 592.22 908.79 592.77 897.01 C 592.70 887.08 593.77 876.68 599.02 868.03 C 602.36 862.94 608.26 859.16 614.50 859.57 C 626.19 860.04 637.41 865.41 646.12 873.05 C 646.92 872.38 647.73 871.73 648.54 871.08 C 647.93 869.11 646.47 866.85 647.85 864.89 C 650.37 860.29 654.41 856.76 657.05 852.23 C 665.14 838.68 671.07 823.95 675.81 808.94 C 678.22 804.39 677.08 798.41 680.83 794.60 C 681.51 798.21 681.37 802.00 682.64 805.49 C 684.49 809.33 688.84 811.22 692.96 811.11 C 696.62 811.57 699.91 809.82 703.25 808.68 C 706.48 808.94 709.40 811.38 712.78 810.63 C 716.83 810.18 719.31 805.93 718.71 802.09 C 718.68 798.26 715.10 796.08 712.57 793.83 C 713.93 791.49 715.62 789.29 716.48 786.69 C 717.47 782.45 715.62 777.50 711.85 775.24 C 708.38 773.84 704.08 773.91 700.85 775.90 C 698.01 778.21 697.87 782.23 696.31 785.32 C 693.79 786.56 690.81 786.26 688.28 787.47 C 686.15 788.50 684.08 789.66 681.89 790.55 C 680.02 779.72 685.72 769.76 686.10 759.11 C 686.37 752.89 689.24 747.19 689.81 741.02 C 690.29 734.53 693.30 728.64 694.29 722.25 C 699.16 704.75 705.83 687.00 718.53 673.58 C 722.20 670.12 726.56 667.45 730.87 664.86 C 739.40 660.80 749.65 660.83 758.26 664.66 C 766.14 668.72 772.63 675.99 774.45 684.82 C 774.50 685.96 775.39 687.78 774.03 688.47 C 770.36 687.04 767.18 684.18 763.08 684.08 C 758.31 683.76 753.34 683.50 748.73 684.96 C 741.53 688.35 736.06 695.86 736.10 703.97 C 735.72 711.64 739.75 719.56 746.36 723.56 C 750.99 726.26 756.62 725.74 761.77 725.55 C 768.63 725.23 774.50 720.92 779.06 716.12 C 783.07 712.02 784.95 706.52 787.29 701.42 C 789.24 697.23 788.68 692.48 788.85 688.00 C 788.76 683.14 789.25 678.07 787.45 673.44 C 785.47 668.43 783.27 663.38 779.63 659.34 C 776.08 655.11 771.26 652.27 766.66 649.34 C 763.50 647.33 759.73 646.82 756.19 645.86 C 752.95 645.10 749.64 643.89 746.29 644.58 C 742.78 645.29 739.36 646.36 735.83 646.91 C 729.73 647.67 724.97 651.92 719.82 654.86 C 702.95 667.27 692.79 686.53 685.97 705.89 C 683.94 711.16 683.01 716.91 679.99 721.75 C 677.85 717.12 677.86 711.86 675.76 707.22 C 674.00 703.10 673.31 698.62 671.46 694.54 C 668.26 687.48 665.28 680.30 661.37 673.59 C 660.19 671.33 658.10 668.36 660.73 666.28 C 665.35 669.28 669.66 672.86 674.65 675.27 C 678.39 677.10 684.30 676.12 685.61 671.65 C 687.46 665.70 686.82 659.22 685.65 653.20 C 682.01 641.50 671.19 633.31 659.58 630.50 C 655.92 629.67 651.78 631.85 650.59 635.44 C 649.40 639.54 649.72 643.99 651.10 648.01 C 652.00 651.16 654.03 654.49 652.25 657.73 C 648.57 653.92 646.29 649.08 643.05 644.93 C 641.48 642.98 640.60 640.56 640.71 638.05 C 640.74 585.70 640.71 533.35 640.72 481.00 C 640.93 456.80 640.17 432.58 641.42 408.40 C 641.53 402.86 643.55 397.62 644.19 392.15 C 645.89 371.28 659.34 352.27 677.64 342.42 C 682.78 339.23 688.84 338.38 694.45 336.39 C 700.34 334.27 706.67 334.69 712.82 334.48 C 715.43 334.25 718.27 334.01 720.44 332.40 C 723.10 329.58 723.12 325.19 722.26 321.63 C 721.71 319.60 719.50 318.85 717.64 318.61 C 713.45 318.09 709.21 318.40 705.00 318.37 C 635.00 318.38 565.00 318.37 495.00 318.38 C 490.23 318.31 485.26 319.07 480.72 317.18 C 486.41 307.71 493.09 298.74 501.12 291.12 C 507.25 284.86 513.55 278.64 521.02 273.96 C 532.30 265.60 544.90 259.13 557.90 253.91 C 565.18 251.70 572.21 248.71 579.77 247.53 C 588.78 244.08 598.52 243.96 608.03 243.53 C 612.36 243.38 616.66 242.24 621.02 242.75 C 630.24 244.03 639.64 243.55 648.83 245.18 C 650.78 245.36 652.20 246.75 653.62 247.96 C 647.81 250.82 640.86 247.79 635.23 251.25 C 632.08 253.06 627.12 254.60 627.35 259.06 C 627.43 266.87 634.55 271.50 639.32 276.69 C 647.22 285.60 658.97 289.37 670.06 292.53 C 673.77 292.71 677.35 289.60 677.52 285.83 C 677.90 281.39 678.07 276.85 677.22 272.46 C 675.38 266.72 672.20 261.34 667.76 257.23 C 664.67 254.17 660.73 252.24 657.19 249.80 C 661.76 246.79 666.51 250.27 670.91 251.74 C 679.11 253.98 686.49 258.28 694.10 261.95 C 710.17 271.12 724.84 283.36 735.29 298.75 C 742.77 308.83 747.82 320.46 751.58 332.37 C 752.57 336.98 752.71 341.74 753.98 346.31 C 755.30 351.09 755.60 356.06 755.48 361.00 C 755.75 368.78 752.57 376.08 751.87 383.76 C 749.27 394.31 744.64 404.47 738.20 413.24 C 733.83 417.85 730.25 423.39 724.69 426.70 C 722.62 422.33 722.94 417.03 719.84 413.15 C 716.58 408.86 711.95 405.25 706.45 404.66 C 699.22 403.77 690.91 404.03 685.34 409.39 C 681.50 413.25 678.03 418.25 678.17 423.93 C 677.99 428.73 677.90 433.94 680.99 437.96 C 683.90 443.71 689.81 446.97 695.61 449.15 C 700.33 450.29 705.26 449.91 710.07 449.78 C 715.34 449.63 720.02 446.87 724.47 444.34 C 744.31 431.25 758.35 410.30 764.33 387.43 C 765.47 382.64 767.47 378.02 767.70 373.05 C 768.54 360.42 768.61 347.71 767.53 335.09 C 762.75 309.67 750.71 285.17 731.33 267.70 C 718.50 255.09 702.84 245.74 686.39 238.67 C 675.38 234.34 663.96 231.17 652.43 228.68 C 639.87 228.35 627.51 223.92 614.90 225.96 C 607.26 226.50 599.77 228.35 592.09 228.50 C 586.21 228.61 580.81 231.18 575.11 232.31 C 568.09 233.58 561.78 237.52 554.52 237.76 C 557.34 233.21 561.81 229.62 563.12 224.23 C 564.55 218.75 567.92 212.97 565.64 207.26 C 564.51 204.45 562.60 200.69 558.98 201.18 C 549.27 202.18 541.16 209.21 536.64 217.58 M 526.46 278.76 C 519.21 281.60 512.08 286.40 508.64 293.60 C 506.36 297.63 509.13 302.05 512.11 304.80 C 514.48 305.78 517.12 305.81 519.62 306.36 C 524.16 307.09 528.27 309.69 532.96 309.65 C 537.83 309.68 542.74 309.92 547.59 309.29 C 551.76 308.41 555.83 307.08 559.83 305.64 C 562.88 304.73 562.95 300.84 562.53 298.27 C 560.57 291.28 555.79 285.15 549.24 281.92 C 542.60 277.48 534.05 276.98 526.46 278.76 M 723.44 389.64 C 719.82 390.92 717.26 394.28 715.87 397.74 C 714.41 401.37 716.37 405.40 719.05 407.88 C 722.17 409.91 726.19 409.82 729.77 409.52 C 733.02 409.20 735.58 406.20 735.62 402.96 C 735.73 399.47 736.45 395.11 733.51 392.53 C 730.98 389.80 727.05 388.54 723.44 389.64 M 491.55 532.76 C 484.11 535.28 482.34 546.01 487.50 551.47 C 491.44 553.39 496.26 552.91 500.49 552.28 C 506.87 549.10 507.58 539.26 502.16 534.84 C 499.64 531.63 495.11 531.95 491.55 532.76 M 498.26 558.03 C 492.87 559.65 486.57 560.20 482.40 564.35 C 479.70 566.80 480.06 571.03 482.26 573.68 C 488.27 581.55 496.31 588.15 505.80 591.30 C 510.32 593.04 515.25 592.48 519.98 592.48 C 524.16 592.26 528.57 592.31 532.45 590.52 C 534.92 587.74 537.84 584.05 537.26 580.15 C 532.28 570.86 524.00 563.03 513.76 560.00 C 508.80 558.40 503.50 556.70 498.26 558.03 M 717.36 618.65 C 710.87 620.54 705.82 625.66 702.24 631.21 C 699.92 634.86 697.92 639.17 698.51 643.59 C 699.91 647.42 703.68 650.97 708.01 650.65 C 714.27 650.78 720.03 647.98 726.11 646.94 C 730.65 646.34 734.04 643.05 737.79 640.75 C 740.85 638.60 744.30 636.69 746.42 633.52 C 747.37 630.76 747.18 627.20 744.72 625.28 C 741.20 622.32 737.15 619.72 732.64 618.62 C 727.59 617.98 722.40 617.96 717.36 618.65 M 493.22 643.94 C 490.72 644.73 489.39 647.19 488.17 649.32 C 484.95 655.01 484.35 661.91 485.65 668.24 C 487.97 676.74 492.49 685.10 499.86 690.21 C 507.99 694.53 517.48 697.67 526.75 695.91 C 531.77 695.03 533.54 689.45 533.55 685.00 C 533.75 681.93 531.55 679.54 530.04 677.12 C 526.94 672.73 524.89 667.69 521.57 663.47 C 517.32 657.71 511.10 653.94 506.02 649.01 C 502.60 645.83 498.28 641.81 493.22 643.94 M 504.27 717.12 C 500.54 717.93 497.33 720.18 494.70 722.88 C 491.52 726.08 487.37 729.17 486.97 734.04 C 487.24 737.24 490.05 739.62 493.09 740.17 C 499.58 741.61 506.35 741.86 512.95 741.21 C 518.06 740.17 522.79 737.75 527.50 735.58 C 531.88 733.33 530.96 727.13 528.00 724.07 C 522.18 717.48 512.71 714.97 504.27 717.12 M 718.48 721.81 C 711.93 724.10 705.59 727.73 701.62 733.60 C 696.54 741.55 694.03 751.10 694.87 760.53 C 695.28 763.16 697.46 765.07 699.68 766.29 C 703.40 768.56 707.77 766.27 711.50 765.19 C 721.74 760.73 731.80 754.62 738.03 745.07 C 741.57 739.71 747.59 734.52 746.51 727.47 C 743.22 723.62 738.19 721.11 733.08 721.15 C 728.22 721.10 723.25 720.70 718.48 721.81 M 684.09 831.17 C 677.80 834.03 674.20 840.24 671.26 846.16 C 669.88 849.16 671.36 852.53 670.69 855.66 C 669.10 858.05 666.27 859.20 663.98 860.80 C 671.28 859.70 678.67 859.73 685.98 858.74 C 691.84 858.08 697.40 860.71 702.27 863.68 C 708.95 867.65 712.80 875.35 713.22 882.97 C 714.20 896.00 710.47 908.72 707.31 921.22 C 702.76 937.15 697.48 952.99 689.78 967.71 C 687.42 972.23 685.45 977.13 681.80 980.80 C 679.34 983.25 674.90 984.51 672.15 981.83 C 667.08 977.41 665.62 970.36 664.92 963.98 C 664.62 955.84 664.38 947.67 663.26 939.59 C 662.36 933.83 656.32 929.55 650.60 930.62 C 645.95 931.45 641.40 933.62 638.34 937.31 C 633.41 943.13 631.18 950.77 630.50 958.25 C 630.15 966.50 628.89 974.71 629.33 982.99 C 629.22 987.47 629.77 992.89 626.29 996.32 C 623.05 999.29 618.59 996.79 614.91 996.26 C 617.07 998.41 619.32 1000.78 622.42 1001.47 C 626.13 1002.24 630.23 1001.52 633.38 999.35 C 636.86 996.71 638.47 992.26 638.72 988.02 C 639.35 979.03 638.67 969.97 639.90 961.02 C 640.73 953.79 641.84 945.72 647.51 940.53 C 649.87 938.04 653.50 936.82 656.85 937.90 C 659.55 941.65 659.37 946.57 659.44 951.00 C 659.17 959.90 659.58 969.07 662.68 977.51 C 665.12 982.87 669.50 988.85 676.05 988.69 C 682.02 989.06 686.55 984.28 689.81 979.88 C 696.31 969.74 700.44 958.33 705.70 947.56 C 710.02 952.78 713.92 958.42 719.05 962.91 C 725.05 968.32 732.65 972.99 741.04 972.43 C 746.10 972.44 750.80 969.84 754.06 966.08 C 758.22 961.33 762.18 955.60 761.91 949.00 C 762.23 941.15 756.33 934.94 750.52 930.51 C 745.51 926.49 739.30 924.57 733.85 921.29 C 748.96 916.34 764.12 908.88 773.73 895.73 C 779.73 888.11 781.37 877.62 778.62 868.39 C 775.14 856.56 768.00 845.13 756.95 839.09 C 747.12 833.64 735.05 834.31 724.67 837.74 C 722.59 838.16 719.95 839.77 718.21 837.78 C 713.93 833.58 709.08 829.35 702.93 828.47 C 696.58 827.90 689.67 827.52 684.09 831.17 M 483.67 864.54 C 478.58 865.64 475.90 870.66 473.82 874.96 C 472.02 878.62 472.64 882.92 474.42 886.47 C 476.52 891.33 481.33 894.33 486.13 896.09 C 491.59 897.74 496.55 894.16 501.36 892.14 C 502.65 895.39 503.81 899.58 507.72 900.53 C 512.38 902.15 516.88 897.49 517.23 893.07 C 516.42 890.67 514.51 888.81 512.42 887.50 C 510.02 885.76 507.10 887.31 504.59 887.89 C 505.90 881.45 506.77 873.47 501.47 868.51 C 497.23 863.33 489.71 862.85 483.67 864.54 M 629.45 893.38 C 629.31 894.73 629.33 896.16 629.89 897.45 L 630.43 897.84 L 630.25 898.38 C 632.43 899.59 634.87 900.28 637.13 901.35 C 638.24 900.20 639.34 899.06 640.45 897.92 C 638.99 896.44 637.42 895.08 635.70 893.92 C 634.92 893.05 634.14 892.17 633.38 891.31 C 631.93 891.63 630.31 892.06 629.45 893.38 M 664.60 895.49 C 664.55 896.81 664.53 898.14 664.49 899.48 C 665.18 900.10 665.87 900.74 666.56 901.40 C 667.60 901.40 668.66 901.42 669.73 901.45 C 670.64 899.58 670.58 897.49 670.56 895.48 C 668.57 895.43 666.58 895.43 664.60 895.49 M 610.41 898.47 C 605.85 899.20 605.27 904.74 606.81 908.24 C 609.93 912.06 618.15 912.00 619.55 906.60 C 620.79 901.65 614.95 897.41 610.41 898.47 M 683.37 906.46 C 680.29 907.37 677.31 910.30 678.27 913.78 C 678.79 920.61 691.22 920.75 691.51 913.72 C 692.21 909.28 687.45 905.83 683.37 906.46 M 640.61 915.30 C 639.82 920.05 643.11 925.01 648.06 925.39 C 653.44 926.69 659.10 922.09 658.31 916.44 C 655.08 918.19 653.38 922.82 648.98 921.76 C 644.58 922.19 644.12 916.63 640.61 915.30 Z" />
<path fill="#ffffff" opacity="1.00" d=" M 469.42 339.40 C 470.39 337.02 472.05 333.99 475.06 334.21 C 481.32 334.13 487.56 335.31 493.43 337.48 C 516.22 343.92 537.45 360.88 543.90 384.35 C 545.23 388.18 546.50 392.07 546.82 396.14 C 547.44 403.14 549.32 409.96 549.83 416.97 C 550.98 430.95 550.55 444.99 550.65 459.00 C 550.62 465.13 550.82 471.26 550.54 477.39 C 547.01 476.23 546.86 471.61 543.88 469.92 C 538.73 468.82 533.68 471.59 530.17 475.17 C 525.96 479.46 522.04 484.71 521.65 490.93 C 521.24 497.20 521.04 504.01 524.33 509.62 C 526.35 513.13 528.75 516.71 532.45 518.62 C 534.81 519.93 537.82 519.37 540.03 518.01 C 544.91 513.98 545.71 507.27 549.09 502.26 C 549.42 502.33 550.08 502.47 550.42 502.54 C 551.06 510.67 550.47 518.85 550.67 527.00 C 550.44 534.15 551.16 541.34 550.36 548.46 C 550.02 548.57 549.34 548.79 549.00 548.89 C 545.30 546.37 542.37 542.91 539.12 539.88 C 533.77 534.23 528.21 528.79 522.89 523.12 C 516.06 516.22 510.27 508.42 503.84 501.17 C 487.19 480.12 473.05 456.69 465.14 430.91 C 464.14 426.90 463.44 422.82 462.22 418.86 C 460.22 412.43 460.34 405.64 459.91 398.99 C 459.42 390.24 459.92 381.48 460.58 372.76 C 461.02 366.78 463.26 361.15 464.24 355.27 C 465.17 349.75 467.48 344.61 469.42 339.40 M 502.37 376.62 C 488.44 380.05 476.50 393.18 477.19 407.99 C 476.85 413.83 477.89 420.36 482.81 424.16 C 486.70 427.08 492.43 426.13 495.80 422.81 C 502.96 416.67 510.62 410.34 514.48 401.47 C 517.13 396.36 518.43 390.72 520.11 385.25 C 521.42 381.84 519.43 377.21 515.65 376.58 C 511.26 375.94 506.75 375.99 502.37 376.62 Z" />
<path fill="#ffffff" opacity="1.00" d=" M 642.01 673.53 C 643.21 674.81 644.44 676.11 645.41 677.62 C 654.38 692.46 660.80 708.75 665.58 725.38 C 666.10 731.05 667.75 736.49 669.06 742.00 C 669.62 748.95 670.17 755.97 669.66 762.94 C 669.25 763.05 668.43 763.28 668.02 763.40 C 663.19 756.87 657.80 750.32 650.16 746.99 C 647.21 745.97 644.03 746.24 640.97 746.05 C 640.35 725.04 640.97 704.02 640.66 683.01 C 640.51 679.78 640.81 676.54 642.01 673.53 Z" />
<path fill="#ffffff" opacity="1.00" d=" M 641.96 788.62 C 646.24 792.53 649.17 797.64 653.35 801.65 C 655.65 804.01 659.21 803.68 662.21 804.18 C 662.85 810.10 660.12 815.49 657.95 820.80 C 654.87 828.92 650.13 836.24 645.71 843.67 C 643.53 847.36 640.94 850.83 637.73 853.69 C 636.00 849.08 637.03 844.11 637.57 839.38 C 641.11 824.51 640.42 809.09 640.72 793.93 C 640.82 792.09 641.43 790.35 641.96 788.62 Z" />
</g>
<g id="#010101ff">
<path fill="#010101" opacity="1.00" d=" M 557.17 205.46 C 559.13 204.98 560.43 206.48 561.27 208.05 C 562.00 214.86 561.42 222.45 556.97 227.99 C 554.01 231.64 550.48 234.91 546.48 237.39 C 543.74 237.83 541.26 236.02 538.80 235.09 C 537.29 226.44 539.38 216.25 546.86 210.87 C 550.01 208.68 553.16 205.70 557.17 205.46 Z" />
<path fill="#010101" opacity="1.00" d=" M 582.97 234.49 C 590.49 234.41 597.42 230.55 604.95 230.49 C 615.98 230.42 627.02 230.39 638.05 230.49 C 645.89 230.60 653.13 234.36 660.95 234.64 C 665.46 235.46 669.60 237.67 674.13 238.52 C 679.15 239.73 683.61 242.52 688.66 243.71 C 699.25 248.44 709.51 254.14 718.47 261.57 C 723.30 265.04 727.17 269.60 731.88 273.22 C 736.61 276.92 739.12 282.56 743.03 287.01 C 748.19 293.00 751.95 300.05 754.82 307.39 C 757.58 312.73 759.40 318.48 761.42 324.13 C 762.46 326.89 762.37 329.85 762.67 332.73 C 763.44 337.19 764.94 341.51 765.37 346.03 C 765.53 351.36 765.41 356.71 765.44 362.05 C 765.53 368.18 762.59 373.88 762.45 380.00 C 762.56 385.23 759.50 389.73 758.24 394.66 C 753.80 408.85 744.13 420.49 734.47 431.48 C 732.54 433.66 730.08 435.25 727.68 436.86 C 723.57 439.57 719.88 443.21 714.88 444.22 C 710.45 445.05 706.07 448.57 701.53 446.66 C 695.72 444.56 689.28 442.66 685.27 437.64 C 681.93 431.34 680.96 423.19 684.68 416.83 C 687.30 412.17 692.36 409.75 697.11 407.82 C 703.03 406.03 708.66 409.32 713.40 412.54 C 716.32 414.90 717.73 418.54 719.41 421.79 C 721.20 425.10 720.37 428.99 720.56 432.60 C 722.53 432.38 724.82 432.81 726.40 431.31 C 730.01 428.33 733.48 425.13 736.66 421.68 C 743.75 414.25 748.36 404.92 752.50 395.63 C 753.81 392.59 754.08 389.24 755.17 386.13 C 759.68 375.00 758.17 362.72 758.45 350.99 C 758.59 342.56 755.95 334.54 753.59 326.55 C 747.88 310.13 738.89 294.78 726.65 282.36 C 718.71 274.47 710.32 266.86 700.44 261.49 C 690.23 254.33 678.30 250.55 666.73 246.28 C 662.30 244.88 657.96 242.98 653.29 242.55 C 648.13 242.23 643.23 240.39 638.15 239.65 C 621.42 237.67 604.20 237.72 587.79 241.90 C 583.45 243.05 578.72 241.79 574.64 244.01 C 570.16 246.31 564.92 246.27 560.51 248.71 C 557.27 250.44 553.45 250.61 550.24 252.41 C 540.10 257.30 529.93 262.33 520.68 268.78 C 514.27 274.00 507.24 278.50 501.51 284.51 C 498.86 287.18 496.13 289.79 493.54 292.52 C 490.08 296.16 487.77 300.68 484.52 304.48 C 481.40 308.13 478.79 312.17 476.36 316.29 C 475.26 317.78 475.58 319.70 475.40 321.44 C 554.93 321.76 634.48 321.41 714.01 321.62 C 717.25 321.63 718.70 325.46 717.12 327.91 C 714.88 330.44 711.30 329.12 708.39 329.68 C 703.45 330.66 698.67 332.48 693.60 332.67 C 688.17 332.97 683.49 335.80 678.53 337.68 C 671.63 340.63 665.87 345.55 659.99 350.08 C 654.32 355.80 649.02 362.20 646.06 369.77 C 644.73 372.78 643.07 375.72 642.66 379.04 C 642.22 383.46 639.82 387.40 639.35 391.82 C 638.07 397.45 638.82 403.25 638.47 408.97 C 637.90 414.65 636.47 420.26 636.60 426.00 C 636.54 497.00 636.62 568.01 636.56 639.02 C 636.44 644.39 641.05 648.07 643.80 652.19 C 650.44 662.05 657.14 671.95 662.17 682.75 C 665.30 689.65 668.57 696.51 671.11 703.65 C 672.06 708.09 673.52 712.38 675.07 716.65 C 676.20 722.28 675.87 728.31 678.59 733.54 C 679.84 733.51 681.10 733.51 682.36 733.52 C 683.58 729.43 684.40 725.25 684.73 721.02 C 686.49 717.08 687.92 713.04 688.82 708.83 C 694.12 696.57 698.87 683.80 707.13 673.14 C 712.31 667.68 716.83 661.43 723.20 657.25 C 727.88 654.22 733.06 652.07 738.20 649.97 C 745.16 648.70 752.58 647.85 759.35 650.55 C 765.48 653.40 772.03 656.20 776.41 661.59 C 779.14 665.14 781.60 669.01 782.87 673.34 C 784.18 677.80 785.97 682.27 785.59 687.02 C 785.87 692.02 783.64 696.63 782.73 701.46 C 782.11 705.54 779.31 708.71 776.97 711.94 C 771.76 718.92 762.82 723.79 753.98 722.42 C 750.05 720.95 746.32 718.57 743.55 715.40 C 739.75 709.63 739.43 701.79 742.55 695.65 C 745.08 691.87 749.06 689.36 753.30 687.85 C 762.39 685.27 771.93 691.13 775.73 699.40 C 776.25 699.46 777.29 699.57 777.81 699.62 C 779.17 693.68 778.56 687.45 778.30 681.42 C 776.56 677.16 774.17 673.13 771.45 669.42 C 767.50 664.05 761.07 661.56 755.21 658.94 C 750.81 656.62 745.70 657.68 740.95 657.47 C 736.94 657.16 733.53 659.53 729.99 660.99 C 716.22 667.71 706.34 680.38 700.11 694.12 C 696.72 701.71 693.42 709.44 691.64 717.59 C 690.77 721.13 688.59 724.31 688.49 728.04 C 688.37 734.31 684.33 739.75 684.46 746.05 C 684.42 752.23 682.09 757.99 680.49 763.86 C 678.96 768.75 680.37 774.05 678.34 778.83 C 675.49 786.11 676.81 794.31 673.71 801.52 C 671.77 805.98 671.90 811.08 669.45 815.35 C 667.10 820.74 664.10 825.93 663.04 831.79 C 659.35 839.03 656.18 846.63 651.36 853.24 C 648.73 856.93 646.57 861.00 643.16 864.06 C 641.41 863.08 639.68 862.07 637.98 861.03 C 640.72 856.55 644.33 852.70 647.26 848.36 C 651.73 841.71 655.74 834.76 659.45 827.66 C 660.98 824.53 663.26 821.61 663.51 818.03 C 664.00 813.08 667.59 808.99 667.58 803.94 C 667.72 798.33 671.79 793.62 671.50 787.99 C 671.10 778.91 673.33 770.01 673.54 760.98 C 672.46 751.76 671.92 742.49 671.25 733.24 C 669.83 728.24 668.06 723.30 667.54 718.09 C 667.33 714.40 664.86 711.42 663.94 707.93 C 661.37 698.91 656.67 690.74 652.58 682.36 C 649.47 676.98 645.56 672.11 642.36 666.79 C 641.43 663.95 637.20 665.17 637.50 667.99 C 637.34 696.32 637.46 724.67 637.44 753.01 C 637.22 755.52 638.81 757.62 639.94 759.73 C 642.15 756.96 643.19 753.58 644.38 750.31 C 652.63 750.35 659.57 756.55 663.24 763.54 C 664.59 766.43 666.63 769.08 667.37 772.22 C 667.73 778.92 667.53 785.64 667.52 792.35 C 664.94 793.20 662.37 794.06 659.75 794.73 C 659.18 796.15 658.61 797.57 658.06 799.00 C 653.06 796.19 648.83 792.19 645.77 787.34 C 643.54 784.61 643.03 781.01 641.25 778.07 C 638.71 777.54 637.41 779.84 637.46 782.07 C 637.31 791.38 637.55 800.71 637.27 810.03 C 636.25 814.22 636.63 818.56 636.05 822.81 C 634.98 827.30 635.82 831.96 634.91 836.47 C 634.16 840.34 634.92 844.37 633.86 848.20 C 633.11 851.31 632.30 854.44 632.19 857.66 C 627.94 856.60 623.13 856.20 619.63 853.38 C 611.49 843.88 602.14 835.41 591.99 828.10 C 584.37 822.75 575.56 817.94 565.96 818.40 C 561.85 818.32 557.94 819.85 553.85 819.90 C 553.20 818.35 553.54 816.62 553.46 815.00 C 553.65 791.33 553.51 767.65 553.58 743.97 C 553.50 741.80 553.84 739.39 552.40 737.57 C 548.81 732.09 544.72 726.70 539.13 723.15 C 530.91 717.69 521.80 713.75 512.43 710.75 C 503.91 710.37 495.35 708.44 486.82 710.03 C 483.34 710.82 479.61 710.03 476.28 711.51 C 469.90 714.03 463.34 716.59 458.07 721.10 C 453.58 725.23 448.98 729.56 446.56 735.28 C 445.22 738.58 443.62 741.80 442.64 745.24 C 442.29 750.73 442.24 756.27 442.66 761.76 C 445.32 770.93 450.99 779.57 459.49 784.26 C 461.48 784.64 463.52 784.53 465.55 784.65 C 465.47 778.61 464.92 771.28 469.88 766.88 C 474.75 762.14 481.92 758.72 488.72 761.03 C 492.88 763.01 497.45 765.11 499.74 769.38 C 501.87 773.12 504.19 777.44 503.22 781.88 C 501.31 787.46 498.07 793.06 492.59 795.75 C 487.66 797.79 482.22 797.55 476.99 797.59 C 472.05 797.53 466.90 798.04 462.26 795.96 C 457.32 793.80 452.31 791.39 448.46 787.54 C 443.73 783.14 441.02 777.11 438.41 771.34 C 436.75 764.94 435.64 758.09 437.15 751.53 C 437.74 748.28 437.20 744.83 438.58 741.74 C 442.47 733.08 446.92 724.46 453.55 717.54 C 461.18 710.71 470.44 705.96 480.15 702.83 C 491.65 700.80 503.48 700.91 515.01 702.48 C 519.45 702.30 523.01 705.46 527.25 706.27 C 535.32 707.66 541.83 713.06 547.67 718.44 C 548.76 719.87 550.57 719.68 552.18 719.70 C 553.55 718.48 553.59 716.72 553.57 715.05 C 553.56 670.03 553.55 625.02 553.57 580.00 C 553.50 577.37 553.79 574.69 553.24 572.11 C 549.67 566.64 544.11 562.98 539.50 558.49 C 530.65 549.69 521.68 541.02 513.14 531.92 C 507.02 524.38 500.12 517.50 494.20 509.81 C 483.53 495.76 473.30 481.22 466.03 465.08 C 463.98 460.57 461.61 455.70 457.00 453.33 C 454.75 452.72 453.71 455.02 452.40 456.33 C 447.90 456.27 443.56 457.76 439.06 457.48 C 431.32 457.49 424.40 453.21 419.03 447.96 C 415.80 444.87 412.82 441.28 411.49 436.94 C 411.78 435.48 412.31 434.09 412.75 432.67 C 420.44 429.67 429.04 429.90 437.00 431.69 C 443.23 433.22 448.24 437.51 453.33 441.21 C 455.05 439.14 454.65 436.41 454.50 433.95 C 454.08 428.65 451.89 423.73 450.65 418.61 C 450.07 412.76 451.02 406.81 449.84 401.00 C 449.32 397.02 449.42 392.95 450.16 389.01 C 451.12 382.70 449.34 376.07 451.76 369.99 C 453.58 365.23 454.35 360.19 454.82 355.16 C 457.60 349.53 458.46 343.24 461.26 337.64 C 464.04 329.77 467.89 322.33 472.00 315.08 C 476.25 308.40 480.06 301.37 485.39 295.45 C 488.78 290.86 493.05 287.06 496.63 282.63 C 501.11 277.07 507.23 273.25 512.40 268.40 C 517.14 263.57 523.44 260.80 528.72 256.64 C 537.12 251.85 545.79 247.49 554.59 243.47 C 559.77 242.02 564.42 238.83 569.86 238.36 C 574.46 237.84 578.25 234.35 582.97 234.49 M 471.47 329.65 C 468.71 330.80 467.32 333.55 466.59 336.28 C 465.51 340.32 462.67 343.76 462.41 348.03 C 462.04 352.35 459.48 356.04 458.64 360.21 C 458.57 367.95 456.61 375.49 455.57 383.12 C 455.61 390.97 454.78 398.97 456.73 406.67 C 458.45 413.86 457.43 421.63 460.78 428.38 C 462.28 432.20 462.32 436.43 464.10 440.16 C 470.79 454.38 476.26 469.41 485.94 481.99 C 489.21 487.88 493.38 493.15 497.54 498.43 C 502.74 506.39 509.53 513.11 515.71 520.30 C 524.69 529.97 533.57 539.76 543.39 548.60 C 545.24 550.28 547.25 552.00 548.00 554.49 C 549.82 554.53 551.65 554.57 553.49 554.58 C 553.59 510.09 553.67 465.60 553.43 421.11 C 552.46 414.91 552.58 408.65 552.35 402.40 C 551.10 396.33 548.61 390.52 548.26 384.26 C 543.56 370.69 535.90 357.54 524.02 349.04 C 516.52 343.49 508.55 338.39 499.60 335.56 C 494.04 332.51 487.53 332.86 481.71 330.63 C 478.45 329.39 474.89 329.22 471.47 329.65 Z" />
<path fill="#010101" opacity="1.00" d=" M 634.84 255.76 C 642.84 252.79 652.05 252.54 659.87 256.16 C 665.11 260.05 670.88 264.42 672.66 271.04 C 674.66 275.58 674.81 280.62 674.24 285.48 C 673.14 286.83 671.83 288.57 669.88 288.40 C 665.48 288.71 661.76 285.92 657.92 284.25 C 648.02 280.36 639.35 273.03 634.06 263.80 C 636.44 262.63 639.05 262.31 641.68 262.52 C 641.63 262.04 641.53 261.08 641.49 260.60 C 639.11 260.04 636.70 259.48 634.50 258.42 C 634.14 257.46 634.25 256.58 634.84 255.76 Z" />
<path fill="#010101" opacity="1.00" d=" M 512.09 294.20 C 517.42 287.62 525.11 281.87 533.99 282.38 C 541.12 281.94 548.14 284.80 553.05 289.95 C 556.63 292.83 558.50 297.52 557.39 302.06 C 552.72 306.00 546.14 303.66 540.66 305.02 C 536.77 306.19 532.91 304.40 529.00 304.48 C 525.70 304.40 522.56 303.30 519.43 302.38 C 519.45 300.79 519.47 299.20 519.50 297.62 C 516.94 296.70 514.40 295.66 512.09 294.20 Z" />
<path fill="#010101" opacity="1.00" d=" M 496.33 383.21 C 500.39 381.46 504.76 380.50 509.07 379.57 C 512.28 378.72 516.25 381.41 515.63 384.94 C 516.15 390.14 512.47 394.33 511.33 399.20 C 507.41 408.06 499.77 414.76 491.78 419.94 C 490.62 417.58 490.36 414.99 490.43 412.40 C 490.00 412.39 489.14 412.37 488.71 412.37 C 488.13 415.25 487.43 418.27 484.98 420.19 C 479.75 413.14 481.22 403.63 483.66 395.81 C 486.37 390.39 491.14 386.19 496.33 383.21 Z" />
<path fill="#010101" opacity="1.00" d=" M 724.51 393.80 C 727.65 393.26 731.74 394.68 732.78 397.97 C 734.41 401.06 731.69 404.31 729.43 406.23 C 726.97 406.44 723.72 407.29 722.02 404.98 C 719.98 403.28 720.61 400.42 720.56 398.10 C 720.24 395.75 722.69 394.54 724.51 393.80 Z" />
<path fill="#010101" opacity="1.00" d=" M 537.56 473.60 C 539.51 471.75 543.32 472.12 544.06 475.00 C 546.80 483.90 547.86 493.76 544.69 502.69 C 543.36 507.09 541.22 511.51 537.51 514.38 C 534.74 514.18 532.13 512.58 529.73 511.25 C 527.20 507.27 524.08 503.01 524.42 498.05 C 524.55 494.34 523.76 490.27 525.97 487.00 C 528.56 481.57 532.70 477.08 537.56 473.60 Z" />
<path fill="#010101" opacity="1.00" d=" M 492.68 538.44 C 494.85 538.33 497.71 537.67 499.16 539.81 C 502.60 542.66 499.33 549.63 494.96 548.70 C 492.14 548.80 490.85 545.69 489.02 544.07 C 489.99 542.11 490.51 539.41 492.68 538.44 Z" />
<path fill="#010101" opacity="1.00" d=" M 484.53 566.63 C 488.26 562.09 494.66 562.37 499.95 561.50 C 513.27 560.24 526.75 567.52 533.06 579.30 C 530.10 581.22 526.46 580.31 523.16 580.43 C 523.29 580.87 523.54 581.74 523.67 582.18 C 526.32 582.49 528.89 583.56 530.11 586.11 C 521.07 590.92 510.00 590.26 500.84 586.15 C 494.08 581.96 487.85 576.68 483.52 569.93 C 483.17 568.60 483.51 567.50 484.53 566.63 Z" />
<path fill="#010101" opacity="1.00" d=" M 710.57 626.63 C 716.93 622.19 725.63 619.29 733.02 622.91 C 736.67 624.64 741.38 625.51 743.18 629.61 C 744.15 631.44 741.96 632.74 740.91 633.90 C 735.67 637.95 729.88 641.30 723.84 644.02 C 719.33 645.04 714.67 645.61 710.03 645.49 C 708.36 642.99 705.96 641.19 703.29 639.90 C 704.17 634.81 706.31 629.78 710.57 626.63 Z" />
<path fill="#010101" opacity="1.00" d=" M 656.57 633.45 C 657.71 633.35 658.87 633.55 659.88 634.13 C 664.48 636.56 669.73 637.80 673.72 641.29 C 678.72 645.05 680.77 651.18 683.17 656.69 C 684.01 660.57 683.37 664.61 683.60 668.56 C 682.89 668.92 681.45 669.64 680.74 670.00 C 679.87 668.19 679.04 666.39 678.25 664.56 C 677.86 664.48 677.08 664.32 676.69 664.24 C 676.55 666.18 676.32 668.14 675.50 669.94 C 667.99 669.07 661.89 663.09 658.21 656.79 C 655.09 652.09 654.70 646.36 653.68 640.98 C 653.80 638.32 654.50 635.28 656.57 633.45 Z" />
<path fill="#010101" opacity="1.00" d=" M 491.25 651.33 C 492.11 648.89 493.76 646.76 496.02 645.47 C 497.67 645.54 498.79 647.01 500.06 647.91 C 506.01 653.30 513.63 656.80 518.58 663.28 C 522.08 667.92 525.25 672.85 527.73 678.11 C 528.78 680.14 528.67 682.50 528.66 684.73 C 522.25 684.74 518.22 678.15 512.02 677.17 C 514.84 684.47 524.01 685.67 527.91 692.21 C 523.33 694.60 517.72 693.79 513.03 692.13 C 508.75 690.53 503.86 689.93 500.44 686.62 C 496.56 683.02 492.29 679.18 490.94 673.86 C 489.90 669.94 488.07 666.13 488.40 661.98 C 488.25 658.22 490.00 654.78 491.25 651.33 Z" />
<path fill="#010101" opacity="1.00" d=" M 502.11 721.01 C 505.77 718.64 510.34 719.40 514.46 719.56 C 517.88 720.78 521.31 722.43 524.11 724.80 C 525.18 727.55 525.56 730.48 525.65 733.42 C 520.93 735.03 516.34 736.98 511.67 738.69 C 507.82 740.33 503.77 738.56 499.84 738.35 C 496.33 737.71 491.32 737.15 490.48 732.91 C 491.61 726.98 497.08 723.48 502.11 721.01 Z" />
<path fill="#010101" opacity="1.00" d=" M 711.10 730.07 C 714.74 726.88 719.72 726.35 724.14 724.86 C 730.30 723.18 736.32 726.03 741.75 728.66 C 741.55 730.87 741.81 733.33 740.13 735.08 C 737.14 738.86 734.68 743.01 731.87 746.90 C 726.88 752.50 720.34 756.48 713.64 759.73 C 710.88 760.80 708.28 762.62 705.23 762.68 C 703.40 760.90 705.89 759.25 706.61 757.60 C 707.69 756.25 707.49 754.43 707.77 752.84 C 705.58 754.17 703.87 757.13 700.99 756.52 C 698.40 754.92 699.72 751.53 699.90 749.07 C 700.80 741.51 705.24 734.76 711.10 730.07 Z" />
<path fill="#010101" opacity="1.00" d=" M 700.72 781.62 C 702.50 779.33 705.35 776.85 708.47 777.79 C 710.21 778.72 712.67 779.87 712.52 782.21 C 712.57 784.71 713.30 788.07 710.44 789.31 C 707.48 791.63 703.87 789.54 700.66 789.14 C 700.61 786.63 700.39 784.11 700.72 781.62 Z" />
<path fill="#010101" opacity="1.00" d=" M 691.35 790.17 C 693.71 788.48 696.31 790.38 698.37 791.62 C 701.53 793.62 703.41 797.47 702.41 801.18 C 700.30 804.81 696.60 808.54 692.01 807.51 C 689.12 806.43 686.39 804.55 684.63 801.99 C 684.39 799.99 684.39 797.97 684.57 795.98 C 685.98 793.25 688.69 791.52 691.35 790.17 Z" />
<path fill="#010101" opacity="1.00" d=" M 706.99 803.00 C 708.29 801.63 709.63 800.29 711.00 798.98 C 712.37 800.30 713.75 801.63 715.10 803.00 C 713.74 804.35 712.37 805.69 710.99 807.02 C 709.62 805.70 708.29 804.35 706.99 803.00 Z" />
<path fill="#010101" opacity="1.00" d=" M 685.82 834.80 C 692.33 831.41 700.18 832.05 707.03 834.10 C 710.37 834.92 712.53 837.78 714.85 840.10 C 710.70 844.02 705.41 846.33 700.73 849.52 C 698.33 850.92 696.05 853.17 693.03 852.71 C 688.70 852.48 684.35 852.65 680.04 852.30 C 678.10 851.35 676.70 849.66 675.26 848.13 C 677.07 842.57 681.41 838.40 685.82 834.80 Z" />
<path fill="#010101" opacity="1.00" d=" M 484.38 867.36 C 488.55 865.55 494.03 866.47 497.16 869.90 C 499.97 872.68 503.54 875.65 503.45 880.00 C 503.11 883.90 500.87 887.50 498.02 890.10 C 492.62 893.66 484.76 893.40 479.89 889.09 C 477.50 885.33 473.80 880.26 476.91 875.94 C 478.71 872.59 480.92 869.15 484.38 867.36 Z" />
<path fill="#010101" opacity="1.00" d=" M 383.78 885.66 C 388.93 878.87 397.26 873.84 406.00 874.50 C 413.03 874.50 420.86 873.72 426.77 878.33 C 433.26 883.44 439.25 889.64 442.38 897.43 C 445.12 902.62 446.27 908.47 449.27 913.54 C 452.37 926.73 460.01 939.34 471.94 946.27 C 476.20 948.93 481.31 949.39 486.14 950.35 C 492.82 951.36 499.35 949.34 505.86 948.15 C 512.76 945.52 519.88 942.52 525.01 937.01 C 528.54 933.72 531.04 929.58 533.70 925.61 C 536.37 921.80 539.03 917.88 540.51 913.43 C 541.98 908.90 544.50 904.66 544.83 899.82 C 545.35 899.42 546.39 898.61 546.91 898.21 C 553.10 902.11 559.33 906.05 566.21 908.64 C 569.40 909.97 572.98 910.63 575.63 913.01 C 565.84 914.18 555.88 916.26 547.26 921.27 C 542.43 924.09 538.16 928.43 536.92 934.05 C 535.58 938.97 538.30 943.67 538.90 948.49 C 534.26 950.01 529.81 952.36 524.86 952.69 C 517.81 953.39 511.18 956.14 504.15 956.93 C 500.81 957.59 497.39 957.30 494.02 957.55 C 484.43 959.20 474.63 958.19 464.95 958.41 C 456.88 957.25 448.68 957.42 440.65 955.91 C 435.49 954.65 430.42 953.01 425.14 952.33 C 414.79 948.89 404.24 945.23 395.49 938.48 C 387.80 932.77 381.05 924.78 379.35 915.11 C 378.46 910.64 376.85 906.07 377.92 901.48 C 379.16 896.00 380.15 890.16 383.78 885.66 Z" />
<path fill="#010101" opacity="1.00" d=" M 506.32 891.52 C 508.40 890.59 510.62 890.29 512.69 891.45 C 512.36 893.44 513.18 896.03 511.33 897.45 C 510.14 897.58 508.89 897.70 507.76 897.30 C 505.82 896.04 506.66 893.44 506.32 891.52 Z" />
<path fill="#010101" opacity="1.00" d=" M 629.45 893.38 C 630.31 892.06 631.93 891.63 633.38 891.31 C 634.14 892.17 634.92 893.05 635.70 893.92 C 635.51 895.03 635.32 896.15 635.15 897.28 C 633.57 897.44 631.99 897.61 630.43 897.84 L 629.89 897.45 C 629.33 896.16 629.31 894.73 629.45 893.38 Z" />
<path fill="#010101" opacity="1.00" d=" M 664.60 895.49 C 666.58 895.43 668.57 895.43 670.56 895.48 C 670.58 897.49 670.64 899.58 669.73 901.45 C 668.66 901.42 667.60 901.40 666.56 901.40 C 665.87 900.74 665.18 900.10 664.49 899.48 C 664.53 898.14 664.55 896.81 664.60 895.49 Z" />
</g>
</svg>
